<?xml version="1.0" encoding="utf-8"?>
<!-- Generator: Adobe Illustrator 26.3.0, SVG Export Plug-In . SVG Version: 6.00 Build 0)  -->
<svg version="1.1" id="Capa_1" xmlns="http://www.w3.org/2000/svg" xmlns:xlink="http://www.w3.org/1999/xlink" x="0px" y="0px"
	 viewBox="0 0 463.62 137.27" style="enable-background:new 0 0 463.62 137.27;" xml:space="preserve">
<style type="text/css">
	.st0{fill:#007D78;}
</style>
<g>
	<g>
		<g>
			<path d="M148.88,128.73V31.96h21.36v96.77H148.88z"/>
		</g>
		<g>
			<path d="M234.17,74.14h59.8v54.59h-58.6c-16.28,0-28.99-4.07-38.11-12.21c-9.12-8.14-13.68-20.22-13.68-36.24
				c0-15.93,4.65-27.96,13.95-36.11c9.3-8.14,22.8-12.21,40.51-12.21h55.93v17.35h-54.46c-11.66,0-20.27,2.45-25.83,7.34
				c-5.56,4.9-8.34,12.77-8.34,23.63c0,10.32,2.45,17.95,7.34,22.89c4.89,4.94,12.06,7.63,21.49,8.08l20.02,0.13h18.42V91.49h-38.44
				V74.14z"/>
		</g>
		<g>
			<path d="M312.66,128.73V31.96h21.36v96.77H312.66z"/>
		</g>
		<g>
			<path d="M344.69,128.73l42.98-96.1h32.97l42.98,96.1H440.4l-9.08-20.82h-54.33l-9.08,20.82H344.69z M384.74,90.56h38.84
				l-18.55-41.25h-1.73L384.74,90.56z"/>
		</g>
	</g>
	<g>
		<g>
			<path class="st0" d="M109.81,36.34v-7.73L40.35,28.5c-4.61,0-8.2,1.05-10.77,3.13c-2.58,2.1-3.87,5.44-3.87,10.05
				c0,4.61,1.29,7.96,3.87,10.06c2.57,2.08,6.15,3.13,10.77,3.13h39.92L50.91,75.61H37.62c-11.9,0-21.14-2.87-27.73-8.6
				C3.29,61.27,0,52.83,0,41.68c0-11.14,3.29-19.59,9.89-25.32c6.59-5.73,15.83-8.6,27.73-8.6h72.19V0l25.73,18.16L109.81,36.34z"/>
		</g>
		<g>
			<path d="M135.53,94.79c0,11.36-3.3,20-9.89,25.89c-6.59,5.9-15.84,8.84-27.73,8.84H25.73v7.76L0,119.11l25.73-18.18v7.73
				l69.45,0.11c4.71,0,8.34-1.1,10.85-3.29c2.52-2.19,3.77-5.76,3.77-10.7c0-4.93-1.25-8.49-3.77-10.7
				c-2.52-2.19-6.14-3.29-10.85-3.29H57.52l29.37-20.74h11.03c11.89,0,21.14,2.93,27.73,8.76
				C132.23,74.67,135.53,83.32,135.53,94.79z"/>
		</g>
	</g>
</g>
</svg>
