<svg xmlns="http://www.w3.org/2000/svg" xmlns:xlink="http://www.w3.org/1999/xlink" version="1.1" id="Capa_1" x="0px" y="0px" viewBox="0 0 135.53 137.27" style="enable-background:new 0 0 135.53 137.27;" xml:space="preserve" transform="matrix(1, 0, 0, -1, 0, 0)">
<style type="text/css">
	.st0{fill:#f7f7f7;}
	.st1{fill:#11eded;}
	.st2{fill:#021f1c;}
	.st3{fill:#d1eded;}
</style>
<g>
	<g>
		<path class="st0" d="M-900.86,300.52v-95.44h21.36v95.44H-900.86z" fill="#000000"/>
	</g>
</g>
<path class="st0" d="M-810.23,246.6h59.8v54.59h-58.6c-16.28,0-28.99-4.07-38.11-12.21c-9.12-8.14-13.68-20.22-13.68-36.24  c0-15.93,4.65-27.96,13.95-36.11c9.3-8.14,22.8-12.21,40.51-12.21h55.93v17.35h-54.46c-11.66,0-20.27,2.45-25.83,7.34  c-5.56,4.9-8.34,12.77-8.34,23.63c0,10.32,2.45,17.95,7.34,22.89c4.89,4.94,12.06,7.63,21.49,8.08l20.02,0.13h18.42v-19.89h-38.44" fill="#000000"/>
<g>
	<g>
		<path class="st0" d="M-731.74,300.52v-95.44h21.36v95.44H-731.74z" fill="#000000"/>
	</g>
</g>
<g>
	<g>
		<path class="st0" d="M-699.71,300.52l42.98-95.44h32.97l42.98,95.44h-23.23l-9.08-20.16h-54.33l-9.08,20.16H-699.71z     M-659.67,263.01h38.84l-18.55-41.25h-1.73L-659.67,263.01z" fill="#000000"/>
	</g>
</g>
<text transform="matrix(1 0 0 1 -1033.1163 117.8558)" style="font-family:'ZenDots-Regular'; font-size:133.4792px;" fill="#000000">SIGIA</text>
<g>
	<path class="st0" d="M-916.39,276.06c0,9.43-2.73,16.59-8.21,21.49c-5.47,4.89-13.14,7.34-23.02,7.34h-51.85v7.96l-29.44-17   l29.44-17v8.71l49.58,0.11c3.91,0,6.92-0.91,9.01-2.74c2.09-1.82,3.14-4.78,3.14-8.87c0-4.09-1.05-7.05-3.14-8.88   c-2.09-1.82-5.1-2.73-9.01-2.73h-37.13l29.82-17.22h9.58c9.88,0,17.55,2.42,23.02,7.27C-919.12,259.35-916.39,266.54-916.39,276.06   z" fill="#000000"/>
</g>
<g>
	<path class="st1" d="M-945.83,227.88v-8.28l-49.58-0.11c-3.82,0-6.8,0.86-8.94,2.6c-2.14,1.73-3.2,4.52-3.2,8.34   c0,3.83,1.06,6.61,3.2,8.34c2.14,1.74,5.12,2.61,8.94,2.61h38.21l-29.82,17.22h-10.66c-9.87,0-17.55-2.38-23.02-7.15   c-5.47-4.76-8.21-11.76-8.21-21.02c0-9.25,2.74-16.26,8.21-21.02c5.47-4.76,13.15-7.14,23.02-7.14h51.85v-8.38l29.44,17   L-945.83,227.88z" fill="#000000"/>
</g>
<g>
	<path d="M-1071.75,453.6v17.35l-76.75-0.13c-3.91,0-6.92,0.91-9.01,2.74c-2.09,1.82-3.14,4.78-3.14,8.88   c0,4.09,1.05,7.05,3.14,8.88c2.09,1.82,5.1,2.74,9.01,2.74h47.79c9.88,0,17.55,2.38,23.03,7.14c5.47,4.76,8.21,11.77,8.21,21.02   c0,9.25-2.74,16.26-8.21,21.02c-5.47,4.76-13.15,7.14-23.03,7.14h-75.02v-17.35l72.75,0.13c3.83,0,6.81-0.87,8.94-2.6   c2.14-1.73,3.2-4.52,3.2-8.34c0-3.83-1.07-6.61-3.2-8.34c-2.14-1.74-5.12-2.6-8.94-2.6h-47.79c-9.88,0-17.55-2.43-23.03-7.27   c-5.47-4.85-8.21-12.04-8.21-21.56c0-9.43,2.74-16.6,8.21-21.49c5.47-4.9,13.15-7.34,23.03-7.34H-1071.75z" fill="#000000"/>
	<polygon points="-1196.72,541.76 -1167.28,558.76 -1167.28,524.76  " fill="#000000"/>
</g>
<g>
	<rect x="-1497.59" y="354.07" class="st0" width="117.33" height="117.33" fill="#000000"/>
</g>
<g>
	<rect x="-1374.03" y="354.07" class="st2" width="117.33" height="117.33" fill="#000000"/>
</g>
<g>
	<g>
		<path d="M148.88,128.73V31.96h21.36v96.77H148.88z" fill="#000000"/>
	</g>
	<g>
		<path d="M234.17,74.14h59.8v54.59h-58.6c-16.28,0-28.99-4.07-38.11-12.21c-9.12-8.14-13.68-20.22-13.68-36.24    c0-15.93,4.65-27.96,13.95-36.11c9.3-8.14,22.8-12.21,40.51-12.21h55.93v17.35h-54.46c-11.66,0-20.27,2.45-25.83,7.34    c-5.56,4.9-8.34,12.77-8.34,23.63c0,10.32,2.45,17.95,7.34,22.89c4.89,4.94,12.06,7.63,21.49,8.08l20.02,0.13h18.42V91.49h-38.44    V74.14z" fill="#000000"/>
	</g>
	<g>
		<path d="M312.66,128.73V31.96h21.36v96.77H312.66z" fill="#000000"/>
	</g>
	<g>
		<path d="M344.69,128.73l42.98-96.1h32.97l42.98,96.1H440.4l-9.08-20.82h-54.33l-9.08,20.82H344.69z M384.74,90.56h38.84    l-18.55-41.25h-1.73L384.74,90.56z" fill="#000000"/>
	</g>
</g>
<g>
	<g>
		<path class="st3" d="M109.81,36.34v-7.73L40.35,28.5c-4.61,0-8.2,1.05-10.77,3.13c-2.58,2.1-3.87,5.44-3.87,10.05    c0,4.61,1.29,7.96,3.87,10.06c2.57,2.08,6.15,3.13,10.77,3.13h39.92L50.91,75.61H37.62c-11.9,0-21.14-2.87-27.73-8.6    C3.29,61.27,0,52.83,0,41.68c0-11.14,3.29-19.59,9.89-25.32c6.59-5.73,15.83-8.6,27.73-8.6h72.19V0l25.73,18.16L109.81,36.34z" fill="#000000"/>
	</g>
	<g>
		<path class="st0" d="M135.53,94.79c0,11.36-3.3,20-9.89,25.89c-6.59,5.9-15.84,8.84-27.73,8.84H25.73v7.76L0,119.11l25.73-18.18    v7.73l69.45,0.11c4.71,0,8.34-1.1,10.85-3.29c2.52-2.19,3.77-5.76,3.77-10.7c0-4.93-1.25-8.49-3.77-10.7    c-2.52-2.19-6.14-3.29-10.85-3.29H57.52l29.37-20.74h11.03c11.89,0,21.14,2.93,27.73,8.76C132.23,74.67,135.53,83.32,135.53,94.79    z" fill="#000000"/>
	</g>
</g>
<g>
	<g>
		<g>
			<path d="M-340.01,128.73V31.96h21.36v96.77H-340.01z" fill="#000000"/>
		</g>
		<g>
			<path d="M-254.72,74.14h59.8v54.59h-58.6c-16.28,0-28.99-4.07-38.11-12.21c-9.12-8.14-13.68-20.22-13.68-36.24     c0-15.93,4.65-27.96,13.95-36.11c9.3-8.14,22.8-12.21,40.51-12.21h55.93v17.35h-54.46c-11.66,0-20.27,2.45-25.83,7.34     c-5.56,4.9-8.34,12.77-8.34,23.63c0,10.32,2.45,17.95,7.34,22.89c4.89,4.94,12.06,7.63,21.49,8.08l20.02,0.13h18.42V91.49h-38.44     V74.14z" fill="#000000"/>
		</g>
		<g>
			<path d="M-176.23,128.73V31.96h21.36v96.77H-176.23z" fill="#000000"/>
		</g>
		<g>
			<path d="M-144.2,128.73l42.98-96.1h32.97l42.98,96.1h-23.23l-9.08-20.82h-54.33l-9.08,20.82H-144.2z M-104.15,90.56h38.84     l-18.55-41.25h-1.73L-104.15,90.56z" fill="#000000"/>
		</g>
	</g>
	<g>
		<g>
			<path class="st3" d="M-379.08,36.34v-7.73l-69.45-0.11c-4.61,0-8.2,1.05-10.77,3.13c-2.58,2.1-3.87,5.44-3.87,10.05     c0,4.61,1.29,7.96,3.87,10.06c2.57,2.08,6.15,3.13,10.77,3.13h39.92l-29.37,20.74h-13.29c-11.9,0-21.14-2.87-27.73-8.6     c-6.6-5.73-9.89-14.18-9.89-25.33c0-11.14,3.29-19.59,9.89-25.32c6.59-5.73,15.83-8.6,27.73-8.6h72.19V0l25.73,18.16     L-379.08,36.34z" fill="#000000"/>
		</g>
		<g>
			<path class="st0" d="M-353.35,94.79c0,11.36-3.3,20-9.89,25.89c-6.59,5.9-15.84,8.84-27.73,8.84h-72.19v7.76l-25.73-18.16     l25.73-18.18v7.73l69.45,0.11c4.71,0,8.34-1.1,10.85-3.29c2.52-2.19,3.77-5.76,3.77-10.7c0-4.93-1.25-8.49-3.77-10.7     c-2.52-2.19-6.14-3.29-10.85-3.29h-37.66L-402,60.06h11.03c11.89,0,21.14,2.93,27.73,8.76     C-356.66,74.67-353.35,83.32-353.35,94.79z" fill="#000000"/>
		</g>
	</g>
</g>
<g>
	<g>
		<path class="st0" d="M-340.01,285.96v-96.77h21.36v96.77H-340.01z" fill="#000000"/>
	</g>
	<g>
		<path class="st0" d="M-254.72,231.36h59.8v54.59h-58.6c-16.28,0-28.99-4.07-38.11-12.21c-9.12-8.14-13.68-20.22-13.68-36.24    c0-15.93,4.65-27.96,13.95-36.11c9.3-8.14,22.8-12.21,40.51-12.21h55.93v17.35h-54.46c-11.66,0-20.27,2.45-25.83,7.34    c-5.56,4.9-8.34,12.77-8.34,23.63c0,10.32,2.45,17.95,7.34,22.89c4.89,4.94,12.06,7.63,21.49,8.08l20.02,0.13h18.42v-19.89h-38.44    V231.36z" fill="#000000"/>
	</g>
	<g>
		<path class="st0" d="M-176.23,285.96v-96.77h21.36v96.77H-176.23z" fill="#000000"/>
	</g>
	<g>
		<path class="st0" d="M-144.2,285.96l42.98-96.1h32.97l42.98,96.1h-23.23l-9.08-20.82h-54.33l-9.08,20.82H-144.2z M-104.15,247.78    h38.84l-18.55-41.25h-1.73L-104.15,247.78z" fill="#000000"/>
	</g>
</g>
<g>
	<g>
		<path class="st3" d="M-379.08,193.56v-7.73l-69.45-0.11c-4.61,0-8.2,1.05-10.77,3.13c-2.58,2.1-3.87,5.44-3.87,10.05    c0,4.61,1.29,7.96,3.87,10.06c2.57,2.08,6.15,3.13,10.77,3.13h39.92l-29.37,20.74h-13.29c-11.9,0-21.14-2.87-27.73-8.6    c-6.6-5.73-9.89-14.18-9.89-25.33c0-11.14,3.29-19.59,9.89-25.32c6.59-5.73,15.83-8.6,27.73-8.6h72.19v-7.76l25.73,18.16    L-379.08,193.56z" fill="#000000"/>
	</g>
	<g>
		<path class="st0" d="M-353.35,252.01c0,11.36-3.3,20-9.89,25.89c-6.59,5.9-15.84,8.84-27.73,8.84h-72.19v7.76l-25.73-18.16    l25.73-18.18v7.73l69.45,0.11c4.71,0,8.34-1.1,10.85-3.29c2.52-2.19,3.77-5.76,3.77-10.7c0-4.93-1.25-8.49-3.77-10.7    c-2.52-2.19-6.14-3.29-10.85-3.29h-37.66l29.37-20.74h11.03c11.89,0,21.14,2.93,27.73,8.76    C-356.66,231.9-353.35,240.55-353.35,252.01z" fill="#000000"/>
	</g>
</g>
</svg>